<svg width="48" height="48" viewBox="0 0 48 48" fill="none" xmlns="http://www.w3.org/2000/svg">
<path d="M37.1837 11.7279L37.1837 8.72792C37.9794 8.72792 38.7424 9.04399 39.3051 9.6066C39.8677 10.1692 40.1837 10.9323 40.1837 11.7279L37.1837 11.7279ZM13.8492 39.3051C12.6776 40.4767 10.7781 40.4767 9.60655 39.3051C8.43498 38.1335 8.43498 36.234 9.60655 35.0625L13.8492 39.3051ZM11.7279 11.7279L11.7279 8.72794L37.1837 8.72792L37.1837 11.7279L37.1837 14.7279L11.7279 14.7279L11.7279 11.7279ZM37.1837 11.7279L40.1837 11.7279L40.1837 37.1838L37.1837 37.1838L34.1837 37.1838L34.1837 11.7279L37.1837 11.7279ZM37.1837 11.7279L39.3051 13.8492L13.8492 39.3051L11.7279 37.1838L9.60655 35.0625L35.0624 9.6066L37.1837 11.7279Z" fill="#FE6534"/>
</svg>
