<svg width="26" height="26" viewBox="0 0 26 26" fill="none" xmlns="http://www.w3.org/2000/svg">
<path d="M13.6288 0H12.3716V26H13.6288V0Z" fill="white"/>
<path d="M26 12.3713H0V13.6286H26V12.3713Z" fill="white"/>
<path d="M4.24984 3.36222L3.36084 4.25122L21.7454 22.6358L22.6344 21.7468L4.24984 3.36222Z" fill="white"/>
<path d="M21.7454 3.36197L3.36084 21.7466L4.24984 22.6356L22.6345 4.25098L21.7454 3.36197Z" fill="white"/>
<path d="M1.2019 7.51705L0.727539 8.6814L24.8061 18.4912L25.2805 17.3269L1.2019 7.51705Z" fill="white"/>
<path d="M17.3269 0.729004L7.51709 24.8076L8.68143 25.282L18.4912 1.20337L17.3269 0.729004Z" fill="white"/>
<path d="M24.8346 7.56088L0.714355 17.2693L1.18381 18.4356L25.304 8.72724L24.8346 7.56088Z" fill="white"/>
<path d="M8.72202 0.714627L7.55566 1.18396L17.2615 25.3042L18.4278 24.8348L8.72202 0.714627Z" fill="white"/>
</svg>
