<svg width="46" height="48" viewBox="0 0 46 48" fill="none" xmlns="http://www.w3.org/2000/svg">
<path d="M23 45L2.1797 18.9746C1.84718 18.559 1.68092 18.3512 1.63625 18.1007C1.59159 17.8502 1.67575 17.5978 1.84407 17.0928L5.9633 4.73509C6.40332 3.41505 6.62332 2.75503 7.1471 2.37752C7.67087 2 8.36659 2 9.75804 2H36.242C37.6334 2 38.3291 2 38.8529 2.37752C39.3767 2.75503 39.5967 3.41505 40.0367 4.73509L44.1559 17.0928C44.3243 17.5978 44.4084 17.8502 44.3637 18.1007C44.3191 18.3512 44.1528 18.559 43.8203 18.9746L23 45ZM23 45L32.4062 15.4375M23 45L13.5938 15.4375M43.1562 18.125L32.4062 15.4375M32.4062 15.4375L28.375 4.6875M32.4062 15.4375H13.5938M17.625 4.6875L13.5938 15.4375M13.5938 15.4375L2.84375 18.125" stroke="#FF6633" stroke-width="3" stroke-linecap="round"/>
</svg>
