<svg width="75" height="75" viewBox="0 0 75 75" fill="none" xmlns="http://www.w3.org/2000/svg">
<path d="M42.0832 44.375L32.9165 53.5417L42.0832 62.7083" stroke="#FF6633" stroke-width="3"/>
<path d="M51.3923 29.4791C52.8003 31.9177 53.5415 34.684 53.5415 37.4999C53.5415 40.3158 52.8003 43.0821 51.3923 45.5208C49.9844 47.9594 47.9593 49.9845 45.5207 51.3924C43.082 52.8004 40.3157 53.5416 37.4998 53.5416" stroke="#FF6633" stroke-width="3" stroke-linecap="round"/>
<path d="M32.9168 30.625L42.0835 21.4583L32.9168 12.2917" stroke="#FF6633" stroke-width="3"/>
<path d="M23.6077 45.5209C22.1997 43.0823 21.4585 40.316 21.4585 37.5001C21.4585 34.6842 22.1997 31.9179 23.6077 29.4792C25.0156 27.0406 27.0407 25.0155 29.4793 23.6076C31.918 22.1996 34.6843 21.4584 37.5002 21.4584" stroke="#FF6633" stroke-width="3" stroke-linecap="round"/>
</svg>
