<svg width="29" height="28" viewBox="0 0 29 28" fill="none" xmlns="http://www.w3.org/2000/svg">
<path fill-rule="evenodd" clip-rule="evenodd" d="M14.7314 21.804C16.2143 21.0348 21.3334 18.0163 21.3334 13C21.3334 9.13401 18.1994 6 14.3334 6C10.4674 6 7.33337 9.13401 7.33337 13C7.33337 18.0163 12.4524 21.0348 13.9353 21.804C14.1882 21.9351 14.4785 21.9351 14.7314 21.804ZM14.3334 16C15.9902 16 17.3334 14.6569 17.3334 13C17.3334 11.3431 15.9902 10 14.3334 10C12.6765 10 11.3334 11.3431 11.3334 13C11.3334 14.6569 12.6765 16 14.3334 16Z" fill="#359A68"/>
</svg>
