<svg width="29" height="28" viewBox="0 0 29 28" fill="none" xmlns="http://www.w3.org/2000/svg">
<path d="M8.01299 6.32038L8.62627 5.70711C9.01679 5.31658 9.64996 5.31658 10.0405 5.70711L12.6263 8.29289C13.0168 8.68342 13.0168 9.31658 12.6263 9.70711L10.8339 11.4995C10.535 11.7984 10.4609 12.255 10.6499 12.6331C11.7427 14.8186 13.5148 16.5907 15.7003 17.6835C16.0784 17.8725 16.535 17.7984 16.8339 17.4995L18.6263 15.7071C19.0168 15.3166 19.65 15.3166 20.0405 15.7071L22.6263 18.2929C23.0168 18.6834 23.0168 19.3166 22.6263 19.7071L22.013 20.3204C19.9016 22.4317 16.5591 22.6693 14.1704 20.8777L12.9619 19.9714C11.2184 18.6638 9.66959 17.115 8.36195 15.3714L7.45564 14.163C5.6641 11.7743 5.90164 8.43173 8.01299 6.32038Z" fill="#359A68"/>
</svg>
