<svg width="29" height="28" viewBox="0 0 29 28" fill="none" xmlns="http://www.w3.org/2000/svg">
<path fill-rule="evenodd" clip-rule="evenodd" d="M6.21205 7.87868C5.33337 8.75736 5.33337 10.1716 5.33337 13V15C5.33337 17.8284 5.33337 19.2426 6.21205 20.1213C7.09073 21 8.50495 21 11.3334 21H17.3334C20.1618 21 21.576 21 22.4547 20.1213C23.3334 19.2426 23.3334 17.8284 23.3334 15V13C23.3334 10.1716 23.3334 8.75736 22.4547 7.87868C21.576 7 20.1618 7 17.3334 7H11.3334C8.50495 7 7.09073 7 6.21205 7.87868ZM21.1654 10.4453C20.8591 9.98578 20.2382 9.86162 19.7787 10.168L14.3334 13.7979L8.88806 10.168L8.80017 10.1152C8.35221 9.8782 7.78853 10.0145 7.50134 10.4453C7.21406 10.8762 7.30522 11.4492 7.69666 11.7715L7.77869 11.832L13.224 15.4619L13.3519 15.541C14.0041 15.9085 14.8129 15.8818 15.4427 15.4619L20.8881 11.832C21.3476 11.5257 21.4718 10.9048 21.1654 10.4453Z" fill="#359A68"/>
</svg>
