<svg width="21" height="20" viewBox="0 0 21 20" fill="none" xmlns="http://www.w3.org/2000/svg">
<path d="M8.00002 9.99995H7.00002C7.00002 10.9941 6.19414 11.8 5.20002 11.8V12.8V13.8C7.29871 13.8 9.00002 12.0986 9.00002 9.99995H8.00002ZM5.20002 12.8V11.8C4.20591 11.8 3.40002 10.9941 3.40002 9.99995H2.40002H1.40002C1.40002 12.0986 3.10134 13.8 5.20002 13.8V12.8ZM2.40002 9.99995H3.40002C3.40002 9.00584 4.20591 8.19995 5.20002 8.19995V7.19995V6.19995C3.10134 6.19995 1.40002 7.90127 1.40002 9.99995H2.40002ZM5.20002 7.19995V8.19995C6.19414 8.19995 7.00002 9.00584 7.00002 9.99995H8.00002H9.00002C9.00002 7.90127 7.29871 6.19995 5.20002 6.19995V7.19995ZM7.97463 9.39995L8.84024 9.90068C9.15298 9.36005 9.73505 8.99995 10.4 8.99995V7.99995V6.99995C8.99225 6.99995 7.76455 7.76601 7.10903 8.89923L7.97463 9.39995ZM10.4 7.99995V8.99995C11.065 8.99995 11.6471 9.36005 11.9598 9.90068L12.8255 9.39995L13.6911 8.89923C13.0355 7.76601 11.8078 6.99995 10.4 6.99995V7.99995ZM18.4 9.99995H17.4C17.4 10.9941 16.5941 11.8 15.6 11.8V12.8V13.8C17.6987 13.8 19.4 12.0986 19.4 9.99995H18.4ZM15.6 12.8V11.8C14.6059 11.8 13.8 10.9941 13.8 9.99995H12.8H11.8C11.8 12.0986 13.5013 13.8 15.6 13.8V12.8ZM12.8 9.99995H13.8C13.8 9.00584 14.6059 8.19995 15.6 8.19995V7.19995V6.19995C13.5013 6.19995 11.8 7.90127 11.8 9.99995H12.8ZM15.6 7.19995V8.19995C16.5941 8.19995 17.4 9.00584 17.4 9.99995H18.4H19.4C19.4 7.90127 17.6987 6.19995 15.6 6.19995V7.19995Z" fill="#FF6633"/>
</svg>
