<svg width="55" height="55" viewBox="0 0 55 55" fill="none" xmlns="http://www.w3.org/2000/svg">
<path d="M32.0833 22.9167H43.0008C43.782 22.9167 44.5502 23.1164 45.2325 23.4967C45.9148 23.8771 46.4885 24.4256 46.8992 25.09C47.31 25.7544 47.5441 26.5128 47.5793 27.2932C47.6146 28.0736 47.4498 28.85 47.1006 29.5488L39.0798 45.5904C38.6991 46.3523 38.1136 46.9931 37.389 47.4408C36.6644 47.8885 35.8294 48.1254 34.9777 48.125H25.7721C25.3985 48.125 25.025 48.0792 24.6606 47.9875L16.0417 45.8333M32.0833 22.9167V11.4583C32.0833 10.2428 31.6004 9.07697 30.7409 8.21743C29.8814 7.35789 28.7156 6.875 27.5 6.875H27.2823C26.1365 6.875 25.2083 7.80312 25.2083 8.94896C25.2083 10.5852 24.7248 12.1848 23.815 13.546L16.0417 25.2083V45.8333M32.0833 22.9167H27.5M16.0417 45.8333H11.4583C10.2428 45.8333 9.07697 45.3504 8.21743 44.4909C7.35789 43.6314 6.875 42.4656 6.875 41.25V27.5C6.875 26.2844 7.35789 25.1186 8.21743 24.2591C9.07697 23.3996 10.2428 22.9167 11.4583 22.9167H17.1875" stroke="#FF6633" stroke-width="3" stroke-linecap="round" stroke-linejoin="round"/>
</svg>
