<svg width="56" height="55" viewBox="0 0 56 55" fill="none" xmlns="http://www.w3.org/2000/svg">
<path fill-rule="evenodd" clip-rule="evenodd" d="M9.63798 12.2965C11.6478 10.2722 14.3734 9.13499 17.2154 9.13499C20.0573 9.13499 22.7829 10.2722 24.7927 12.2965L27.933 15.4577L31.0733 12.2965C32.0619 11.2652 33.2446 10.4426 34.5522 9.87666C35.8598 9.31074 37.2661 9.01287 38.6892 9.00041C40.1123 8.98795 41.5236 9.26116 42.8408 9.8041C44.1579 10.347 45.3546 11.1488 46.3609 12.1627C47.3672 13.1765 48.163 14.3822 48.7019 15.7092C49.2408 17.0363 49.512 18.4581 49.4996 19.8919C49.4872 21.3257 49.1916 22.7426 48.6299 24.06C48.0682 25.3774 47.2517 26.5689 46.228 27.565L27.933 46L9.63798 27.565C7.62873 25.5401 6.5 22.794 6.5 19.9308C6.5 17.0675 7.62873 14.3215 9.63798 12.2965V12.2965Z" stroke="#FF6633" stroke-width="3" stroke-linejoin="round"/>
</svg>
