<svg width="55" height="55" viewBox="0 0 55 55" fill="none" xmlns="http://www.w3.org/2000/svg">
<path d="M25.7112 48.8141L25.0403 50.1558H25.0403L25.7112 48.8141ZM29.2889 48.8141L29.9597 50.1558H29.9597L29.2889 48.8141ZM31.5644 47.6763L32.2352 49.018L31.5644 47.6763ZM32.6961 45.8878L31.1975 45.8244L32.6961 45.8878ZM32.5084 47.0496L33.7674 47.865L32.5084 47.0496ZM22.4916 47.0496L21.2326 47.865L22.4916 47.0496ZM18.9808 34.2365L19.8057 32.9837L18.9808 34.2365ZM19.7398 35.0998L21.1067 34.4822L19.7398 35.0998ZM19.4747 34.609L18.3336 35.5827L19.4747 34.609ZM36.0193 34.2365L35.1943 32.9837L36.0193 34.2365ZM35.2602 35.0998L33.8933 34.4822L35.2602 35.0998ZM35.5253 34.609L36.6664 35.5827L35.5253 34.609ZM43.01 21.2736H41.51C41.51 26.1674 39.002 30.4762 35.1943 32.9837L36.0193 34.2365L36.8442 35.4892C41.4589 32.4503 44.51 27.2186 44.51 21.2736H43.01ZM27.5 5.76367V7.26367C35.2375 7.26367 41.51 13.5361 41.51 21.2736H43.01H44.51C44.51 11.8793 36.8943 4.26367 27.5 4.26367V5.76367ZM11.9901 21.2736H13.4901C13.4901 13.5361 19.7625 7.26367 27.5 7.26367V5.76367V4.26367C18.1057 4.26367 10.4901 11.8793 10.4901 21.2736H11.9901ZM18.9808 34.2365L19.8057 32.9837C15.998 30.4762 13.4901 26.1674 13.4901 21.2736H11.9901H10.4901C10.4901 27.2186 13.5411 32.4503 18.1558 35.4892L18.9808 34.2365ZM22.3039 45.8878L23.8025 45.8244C23.6364 41.9014 22.7194 38.0514 21.1067 34.4822L19.7398 35.0998L18.3728 35.7174C19.8279 38.9379 20.6553 42.4117 20.8052 45.9513L22.3039 45.8878ZM25.7112 48.8141L26.382 47.4725L24.1064 46.3347L23.4356 47.6763L22.7648 49.018L25.0403 50.1558L25.7112 48.8141ZM29.2889 48.8141L28.618 47.4725C27.9142 47.8244 27.0858 47.8244 26.382 47.4725L25.7112 48.8141L25.0403 50.1558C26.5887 50.93 28.4113 50.93 29.9597 50.1558L29.2889 48.8141ZM31.5644 47.6763L30.8936 46.3347L28.618 47.4725L29.2889 48.8141L29.9597 50.1558L32.2352 49.018L31.5644 47.6763ZM35.2602 35.0998L33.8933 34.4822C32.2806 38.0514 31.3636 41.9014 31.1975 45.8244L32.6961 45.8878L34.1948 45.9513C34.3447 42.4117 35.1721 38.9379 36.6272 35.7174L35.2602 35.0998ZM31.5644 47.6763L32.2352 49.018C32.4744 48.8984 32.7502 48.7623 32.9775 48.6196C33.2299 48.4611 33.5305 48.2309 33.7674 47.865L32.5084 47.0496L31.2494 46.2342C31.3381 46.0972 31.4319 46.0477 31.3821 46.079C31.3541 46.0966 31.3056 46.1245 31.2189 46.1699C31.1322 46.2153 31.0299 46.2666 30.8936 46.3347L31.5644 47.6763ZM32.6961 45.8878L31.1975 45.8244C31.1907 45.9838 31.1855 46.1052 31.1793 46.2092C31.173 46.3132 31.167 46.3751 31.1618 46.4134C31.1515 46.4884 31.1554 46.3793 31.2494 46.2342L32.5084 47.0496L33.7674 47.865C34.0096 47.4911 34.0942 47.112 34.1342 46.8189C34.171 46.5492 34.1828 46.2339 34.1948 45.9513L32.6961 45.8878ZM22.3039 45.8878L20.8052 45.9513C20.8172 46.2339 20.829 46.5492 20.8658 46.8189C20.9058 47.112 20.9904 47.4911 21.2326 47.865L22.4916 47.0496L23.7506 46.2342C23.8446 46.3792 23.8485 46.4884 23.8383 46.4134C23.833 46.3751 23.827 46.3132 23.8207 46.2092C23.8145 46.1052 23.8093 45.9838 23.8025 45.8244L22.3039 45.8878ZM23.4356 47.6763L24.1064 46.3347C23.9701 46.2666 23.8678 46.2153 23.7811 46.1699C23.6945 46.1245 23.6459 46.0966 23.618 46.079C23.5681 46.0477 23.6619 46.0972 23.7506 46.2342L22.4916 47.0496L21.2326 47.865C21.4696 48.2309 21.7701 48.4611 22.0225 48.6196C22.2498 48.7623 22.5256 48.8984 22.7648 49.018L23.4356 47.6763ZM18.9808 34.2365L18.1558 35.4892C18.2245 35.5345 18.2764 35.5687 18.3206 35.5984C18.3647 35.6281 18.3905 35.6462 18.4061 35.6577C18.4376 35.6807 18.3926 35.6517 18.3336 35.5827L19.4747 34.609L20.6157 33.6354C20.3513 33.3255 19.9911 33.1058 19.8057 32.9837L18.9808 34.2365ZM19.7398 35.0998L21.1067 34.4822C21.0242 34.2995 20.8772 33.9418 20.6157 33.6354L19.4747 34.609L18.3336 35.5827C18.3107 35.5558 18.2926 35.5307 18.2798 35.5108C18.2681 35.4927 18.2641 35.4842 18.2688 35.4933C18.2741 35.5034 18.2842 35.5238 18.3028 35.5637C18.3216 35.604 18.343 35.6514 18.3728 35.7174L19.7398 35.0998ZM36.0193 34.2365L35.1943 32.9837C35.0089 33.1058 34.6487 33.3255 34.3843 33.6354L35.5253 34.609L36.6664 35.5827C36.6075 35.6517 36.5625 35.6807 36.5939 35.6577C36.6095 35.6462 36.6353 35.6281 36.6794 35.5984C36.7236 35.5687 36.7755 35.5345 36.8442 35.4892L36.0193 34.2365ZM35.2602 35.0998L36.6272 35.7174C36.657 35.6514 36.6785 35.604 36.6972 35.5637C36.7158 35.5238 36.7259 35.5034 36.7312 35.4933C36.736 35.4842 36.732 35.4927 36.7203 35.5108C36.7074 35.5307 36.6893 35.5558 36.6664 35.5827L35.5253 34.609L34.3843 33.6354C34.1228 33.9418 33.9758 34.2995 33.8933 34.4822L35.2602 35.0998Z" fill="#FF6633"/>
<path d="M35.2352 36.7837V36.7837C30.5536 39.913 24.4477 39.913 19.7661 36.7837V36.7837" stroke="#FF6633" stroke-width="3"/>
</svg>
