<svg width="55" height="55" viewBox="0 0 55 55" fill="none" xmlns="http://www.w3.org/2000/svg">
<path d="M27.5 49L6.6797 22.9746C6.34718 22.559 6.18092 22.3512 6.13625 22.1007C6.09159 21.8502 6.17575 21.5978 6.34407 21.0928L10.4633 8.73509C10.9033 7.41505 11.1233 6.75503 11.6471 6.37752C12.1709 6 12.8666 6 14.258 6H40.742C42.1334 6 42.8291 6 43.3529 6.37752C43.8767 6.75503 44.0967 7.41505 44.5367 8.73509L48.6559 21.0928C48.8243 21.5978 48.9084 21.8502 48.8637 22.1007C48.8191 22.3512 48.6528 22.559 48.3203 22.9746L27.5 49ZM27.5 49L36.9062 19.4375M27.5 49L18.0938 19.4375M47.6562 22.125L36.9062 19.4375M36.9062 19.4375L32.875 8.6875M36.9062 19.4375H18.0938M22.125 8.6875L18.0938 19.4375M18.0938 19.4375L7.34375 22.125" stroke="#FF6633" stroke-width="3" stroke-linecap="round"/>
</svg>
