<svg width="56" height="55" viewBox="0 0 56 55" fill="none" xmlns="http://www.w3.org/2000/svg">
<path d="M26.2111 48.8141L25.5403 50.1558L25.5403 50.1558L26.2111 48.8141ZM29.7888 48.8141L30.4596 50.1558L30.4596 50.1558L29.7888 48.8141ZM32.0644 47.6763L32.7352 49.018L32.0644 47.6763ZM33.1961 45.8878L31.6974 45.8244L33.1961 45.8878ZM33.0083 47.0496L34.2674 47.865L33.0083 47.0496ZM22.9915 47.0496L21.7325 47.865L22.9915 47.0496ZM19.4807 34.2365L20.3057 32.9837L19.4807 34.2365ZM20.2397 35.0998L21.6067 34.4822L20.2397 35.0998ZM19.9746 34.609L18.8336 35.5827L19.9746 34.609ZM36.5192 34.2365L35.6942 32.9837L36.5192 34.2365ZM35.7602 35.0998L34.3932 34.4822L35.7602 35.0998ZM36.0253 34.609L37.1663 35.5827L36.0253 34.609ZM43.5099 21.2736H42.0099C42.0099 26.1674 39.502 30.4762 35.6942 32.9837L36.5192 34.2365L37.3442 35.4892C41.9589 32.4503 45.0099 27.2186 45.0099 21.2736H43.5099ZM27.9999 5.76367V7.26367C35.7374 7.26367 42.0099 13.5361 42.0099 21.2736H43.5099H45.0099C45.0099 11.8793 37.3943 4.26367 27.9999 4.26367V5.76367ZM12.49 21.2736H13.99C13.99 13.5361 20.2625 7.26367 27.9999 7.26367V5.76367V4.26367C18.6056 4.26367 10.99 11.8793 10.99 21.2736H12.49ZM19.4807 34.2365L20.3057 32.9837C16.4979 30.4762 13.99 26.1674 13.99 21.2736H12.49H10.99C10.99 27.2186 14.041 32.4503 18.6557 35.4892L19.4807 34.2365ZM22.8038 45.8878L24.3025 45.8244C24.1363 41.9014 23.2194 38.0514 21.6067 34.4822L20.2397 35.0998L18.8728 35.7174C20.3279 38.9379 21.1553 42.4117 21.3052 45.9513L22.8038 45.8878ZM26.2111 48.8141L26.8819 47.4725L24.6064 46.3347L23.9355 47.6763L23.2647 49.018L25.5403 50.1558L26.2111 48.8141ZM29.7888 48.8141L29.118 47.4725C28.4142 47.8244 27.5857 47.8244 26.8819 47.4725L26.2111 48.8141L25.5403 50.1558C27.0887 50.93 28.9112 50.93 30.4596 50.1558L29.7888 48.8141ZM32.0644 47.6763L31.3935 46.3347L29.118 47.4725L29.7888 48.8141L30.4596 50.1558L32.7352 49.018L32.0644 47.6763ZM35.7602 35.0998L34.3932 34.4822C32.7805 38.0514 31.8636 41.9014 31.6974 45.8244L33.1961 45.8878L34.6947 45.9513C34.8446 42.4117 35.672 38.9379 37.1271 35.7174L35.7602 35.0998ZM32.0644 47.6763L32.7352 49.018C32.9744 48.8984 33.2502 48.7623 33.4774 48.6196C33.7299 48.4611 34.0304 48.2309 34.2674 47.865L33.0083 47.0496L31.7493 46.2342C31.8381 46.0972 31.9318 46.0477 31.882 46.079C31.8541 46.0966 31.8055 46.1245 31.7189 46.1699C31.6321 46.2153 31.5298 46.2666 31.3935 46.3347L32.0644 47.6763ZM33.1961 45.8878L31.6974 45.8244C31.6907 45.9838 31.6855 46.1052 31.6792 46.2092C31.6729 46.3132 31.6669 46.3751 31.6617 46.4134C31.6515 46.4884 31.6554 46.3793 31.7493 46.2342L33.0083 47.0496L34.2674 47.865C34.5095 47.4911 34.5942 47.112 34.6342 46.8189C34.671 46.5492 34.6828 46.2339 34.6947 45.9513L33.1961 45.8878ZM22.8038 45.8878L21.3052 45.9513C21.3171 46.2339 21.3289 46.5492 21.3657 46.8189C21.4057 47.112 21.4904 47.4911 21.7325 47.865L22.9915 47.0496L24.2506 46.2342C24.3445 46.3793 24.3484 46.4884 24.3382 46.4134C24.333 46.3751 24.327 46.3132 24.3207 46.2092C24.3144 46.1052 24.3092 45.9838 24.3025 45.8244L22.8038 45.8878ZM23.9355 47.6763L24.6064 46.3347C24.4701 46.2666 24.3678 46.2153 24.281 46.1699C24.1944 46.1245 24.1458 46.0966 24.1179 46.079C24.0681 46.0477 24.1618 46.0972 24.2506 46.2342L22.9915 47.0496L21.7325 47.865C21.9695 48.2309 22.27 48.4611 22.5225 48.6196C22.7497 48.7623 23.0255 48.8984 23.2647 49.018L23.9355 47.6763ZM19.4807 34.2365L18.6557 35.4892C18.7245 35.5345 18.7763 35.5687 18.8206 35.5984C18.8647 35.6281 18.8904 35.6462 18.9061 35.6577C18.9375 35.6807 18.8925 35.6517 18.8336 35.5827L19.9746 34.609L21.1157 33.6354C20.8513 33.3255 20.4911 33.1058 20.3057 32.9837L19.4807 34.2365ZM20.2397 35.0998L21.6067 34.4822C21.5241 34.2995 21.3771 33.9418 21.1157 33.6354L19.9746 34.609L18.8336 35.5827C18.8107 35.5558 18.7926 35.5307 18.7797 35.5108C18.768 35.4927 18.764 35.4842 18.7687 35.4933C18.774 35.5034 18.7842 35.5238 18.8027 35.5637C18.8215 35.604 18.843 35.6514 18.8728 35.7174L20.2397 35.0998ZM36.5192 34.2365L35.6942 32.9837C35.5088 33.1058 35.1486 33.3255 34.8842 33.6354L36.0253 34.609L37.1663 35.5827C37.1074 35.6517 37.0624 35.6807 37.0938 35.6577C37.1095 35.6462 37.1352 35.6281 37.1793 35.5984C37.2236 35.5687 37.2754 35.5345 37.3442 35.4892L36.5192 34.2365ZM35.7602 35.0998L37.1271 35.7174C37.1569 35.6514 37.1784 35.604 37.1972 35.5637C37.2157 35.5238 37.2259 35.5034 37.2312 35.4933C37.2359 35.4842 37.2319 35.4927 37.2202 35.5108C37.2073 35.5307 37.1892 35.5558 37.1663 35.5827L36.0253 34.609L34.8842 33.6354C34.6227 33.9418 34.4758 34.2995 34.3932 34.4822L35.7602 35.0998Z" fill="#FF6633"/>
<path d="M35.7351 36.7836V36.7836C31.0535 39.9129 24.9476 39.9129 20.266 36.7836V36.7836" stroke="#FF6633" stroke-width="3"/>
</svg>
