<svg width="24" height="24" viewBox="0 0 24 24" fill="none" xmlns="http://www.w3.org/2000/svg">
<path d="M11.9998 3.03308C7.0294 3.03308 3 7.06248 3 12.0329C3 16.2535 5.90586 19.7951 9.82582 20.7678V14.7832H7.97006V12.0329H9.82582V10.8478C9.82582 7.78463 11.2122 6.36481 14.2195 6.36481C14.7898 6.36481 15.7736 6.47677 16.1761 6.58837V9.08132C15.9637 9.059 15.5947 9.04784 15.1364 9.04784C13.6608 9.04784 13.0906 9.60691 13.0906 11.0602V12.0329H16.0303L15.5252 14.7832H13.0906V20.9668C17.5469 20.4287 21 16.6343 21 12.0329C20.9996 7.06248 16.9702 3.03308 11.9998 3.03308Z" fill="white"/>
</svg>
