<svg width="55" height="55" viewBox="0 0 55 55" fill="none" xmlns="http://www.w3.org/2000/svg">
<path fill-rule="evenodd" clip-rule="evenodd" d="M9.13798 12.2965C11.1478 10.2722 13.8734 9.13499 16.7154 9.13499C19.5573 9.13499 22.2829 10.2722 24.2927 12.2965L27.433 15.4577L30.5733 12.2965C31.5619 11.2652 32.7446 10.4426 34.0522 9.87666C35.3598 9.31074 36.7661 9.01287 38.1892 9.00041C39.6123 8.98795 41.0236 9.26116 42.3408 9.8041C43.6579 10.347 44.8546 11.1488 45.8609 12.1627C46.8672 13.1765 47.663 14.3822 48.2019 15.7092C48.7408 17.0363 49.012 18.4581 48.9996 19.8919C48.9872 21.3257 48.6916 22.7426 48.1299 24.06C47.5682 25.3774 46.7517 26.5689 45.728 27.565L27.433 46L9.13798 27.565C7.12873 25.5401 6 22.794 6 19.9308C6 17.0675 7.12873 14.3215 9.13798 12.2965V12.2965Z" stroke="#FF6633" stroke-width="3" stroke-linejoin="round"/>
</svg>
