<svg width="75" height="75" viewBox="0 0 75 75" fill="none" xmlns="http://www.w3.org/2000/svg">
<path d="M31.6994 20.7112C34.1575 14.5831 35.3866 11.519 37.5001 11.519C39.6136 11.519 40.8427 14.5831 43.3008 20.7112L43.4153 20.9966C44.804 24.4587 45.4984 26.1897 46.9135 27.2419C48.3287 28.294 50.1864 28.4604 53.9017 28.7931L54.5734 28.8533C60.6541 29.3979 63.6944 29.6701 64.345 31.6045C64.9955 33.5388 62.7377 35.593 58.2219 39.7014L56.7148 41.0726C54.4288 43.1523 53.2858 44.1922 52.7531 45.5551C52.6537 45.8093 52.5711 46.0698 52.5058 46.3348C52.1556 47.7556 52.4903 49.2642 53.1597 52.2813L53.3681 53.2204C54.5983 58.7652 55.2134 61.5376 54.1394 62.7334C53.7381 63.1803 53.2165 63.502 52.6371 63.6601C51.0865 64.0832 48.885 62.2893 44.482 58.7015C41.5908 56.3456 40.1453 55.1677 38.4856 54.9027C37.8327 54.7985 37.1675 54.7985 36.5147 54.9027C34.855 55.1677 33.4094 56.3456 30.5182 58.7015C26.1152 62.2893 23.9138 64.0832 22.3631 63.6601C21.7837 63.502 21.2621 63.1803 20.8608 62.7334C19.7868 61.5376 20.4019 58.7652 21.6321 53.2204L21.8405 52.2812C22.5099 49.2642 22.8446 47.7556 22.4944 46.3348C22.4291 46.0698 22.3465 45.8093 22.2471 45.5551C21.7144 44.1922 20.5714 43.1523 18.2854 41.0726L16.7783 39.7014C12.2626 35.593 10.0047 33.5388 10.6552 31.6045C11.3058 29.6701 14.3461 29.3979 20.4268 28.8533L21.0985 28.7931C24.8138 28.4604 26.6715 28.294 28.0867 27.2419C29.5018 26.1897 30.1962 24.4587 31.5849 20.9966L31.6994 20.7112Z" stroke="#FF6633" stroke-width="3"/>
</svg>
