<svg width="44" height="45" viewBox="0 0 44 45" fill="none" xmlns="http://www.w3.org/2000/svg">
<rect y="0.5" width="44" height="44" rx="22" fill="#FFE0D6"/>
<path d="M28.7071 25.2071L31.3552 27.8552C31.7113 28.2113 31.7113 28.7887 31.3552 29.1448C29.43 31.07 26.3821 31.2866 24.204 29.653L22.6286 28.4714C20.885 27.1638 19.3362 25.615 18.0286 23.8714L16.847 22.296C15.2134 20.1179 15.43 17.07 17.3552 15.1448C17.7113 14.7887 18.2887 14.7887 18.6448 15.1448L21.2929 17.7929C21.6834 18.1834 21.6834 18.8166 21.2929 19.2071L20.2717 20.2283C20.1095 20.3905 20.0692 20.6385 20.1719 20.8437C21.3585 23.2171 23.2829 25.1415 25.6563 26.3281C25.8615 26.4308 26.1095 26.3905 26.2717 26.2283L27.2929 25.2071C27.6834 24.8166 28.3166 24.8166 28.7071 25.2071Z" stroke="#FF6633" stroke-width="2"/>
</svg>
