<svg width="55" height="55" viewBox="0 0 55 55" fill="none" xmlns="http://www.w3.org/2000/svg">
<path d="M40.7009 49H14.6004" stroke="#FF6633" stroke-width="3" stroke-linecap="round"/>
<path d="M28.9134 43.7009C28.9134 44.5294 28.2418 45.2009 27.4134 45.2009C26.5849 45.2009 25.9134 44.5294 25.9134 43.7009H28.9134ZM27.4134 43.7009H25.9134V36.4508H27.4134H28.9134V43.7009H27.4134Z" fill="#FF6633"/>
<path d="M23.3268 17.0994H32.027" stroke="#FF6633" stroke-width="3" stroke-linecap="round"/>
<path d="M8.80013 31.5997C8.80013 31.5997 3 27.2496 3 19.9994C3 16.896 3 14.324 3 12.397C3 10.5128 3 9.57074 3.58579 8.98496C4.17157 8.39917 5.11438 8.39917 7 8.39917H10.6003C12.4859 8.39917 13.4287 8.39917 14.0145 8.98496C14.6003 9.57074 14.6003 10.5136 14.6003 12.3992V17.0994" stroke="#FF6633" stroke-width="3" stroke-linecap="round"/>
<path d="M46.2639 32.1007C46.2639 32.1007 52.064 27.7506 52.064 20.5004C52.064 17.397 52.064 14.8249 52.064 12.898C52.064 11.0138 52.064 10.0717 51.4782 9.48593C50.8925 8.90015 49.9496 8.90015 48.064 8.90015H44.4638C42.5781 8.90015 41.6353 8.90015 41.0496 9.48593C40.4638 10.0717 40.4638 11.0145 40.4638 12.9001V17.6003" stroke="#FF6633" stroke-width="3" stroke-linecap="round"/>
<path d="M40.4637 27.0598V8C40.4637 6.89543 39.5682 6 38.4637 6H16.3631C15.2585 6 14.3631 6.89543 14.3631 8V27.0598C14.3631 28.3972 15.0315 29.6461 16.1443 30.388L26.8587 37.5309C27.1946 37.7548 27.6322 37.7548 27.9681 37.5309L38.6825 30.388C39.7953 29.6461 40.4637 28.3972 40.4637 27.0598Z" stroke="#FF6633" stroke-width="3"/>
</svg>
