<svg width="75" height="75" viewBox="0 0 75 75" fill="none" xmlns="http://www.w3.org/2000/svg">
<path d="M12.5 32.125C12.5 30.2394 12.5 29.2966 13.0858 28.7108C13.6716 28.125 14.6144 28.125 16.5 28.125H58.5C60.3856 28.125 61.3284 28.125 61.9142 28.7108C62.5 29.2966 62.5 30.2394 62.5 32.125V59.625C62.5 62.4534 62.5 63.8676 61.6213 64.7463C60.7426 65.625 59.3284 65.625 56.5 65.625H18.5C15.6716 65.625 14.2574 65.625 13.3787 64.7463C12.5 63.8676 12.5 62.4534 12.5 59.625V32.125Z" stroke="#FF6633" stroke-width="3"/>
<path d="M50 25V19.375C50 14.661 50 12.3039 48.5355 10.8395C47.0711 9.375 44.714 9.375 40 9.375H35C30.286 9.375 27.9289 9.375 26.4645 10.8395C25 12.3039 25 14.661 25 19.375V25" stroke="#FF6633" stroke-width="3" stroke-linecap="round"/>
<circle cx="37.5" cy="46.875" r="6.25" fill="#FF6633"/>
</svg>
