<svg width="63" height="63" viewBox="0 0 63 63" fill="none" xmlns="http://www.w3.org/2000/svg">
<rect width="63" height="63" fill="#F2F2F2"/>
<g id="[UPDATED] Beranda">
<rect width="1440" height="5358" transform="translate(-1072 -782)" fill="white"/>
<g id="Frame 1171275858">
<g id="base: Home">
<g id="running text" clip-path="url(#clip0_1403_104)">
<rect width="1440" height="124" transform="translate(-1072 -31)" fill="#359A68"/>
<g id="Frame 1171275998">
<g id="Group">
<g id="Group_2">
<g id="Group_3">
<path id="Vector" d="M33.2464 0H30.234V62.296H33.2464V0Z" fill="white"/>
</g>
<g id="Group_4">
<path id="Vector_2" d="M62.8882 29.6418H0.592163V32.6542H62.8882V29.6418Z" fill="white"/>
</g>
<g id="Group_5">
<path id="Vector_3" d="M10.7745 8.05598L8.64441 10.186L52.6939 54.2356L54.824 52.1055L10.7745 8.05598Z" fill="white"/>
</g>
<g id="Group_6">
<path id="Vector_4" d="M52.694 8.05543L8.64441 52.105L10.7745 54.235L54.824 10.1855L52.694 8.05543Z" fill="white"/>
</g>
<g id="Group_7">
<path id="Vector_5" d="M3.47117 18.011L2.33459 20.8008L60.027 44.3051L61.1635 41.5153L3.47117 18.011Z" fill="white"/>
</g>
<g id="Group_8">
<path id="Vector_6" d="M42.1072 1.74658L18.6029 59.439L21.3927 60.5755L44.897 2.88315L42.1072 1.74658Z" fill="white"/>
</g>
<g id="Group_9">
<path id="Vector_7" d="M60.0952 18.1158L2.3031 41.3772L3.42792 44.1718L61.22 20.9104L60.0952 18.1158Z" fill="white"/>
</g>
<g id="Group_10">
<path id="Vector_8" d="M21.4898 1.71215L18.6952 2.83667L41.9503 60.6287L44.7449 59.5042L21.4898 1.71215Z" fill="white"/>
</g>
</g>
</g>
</g>
</g>
</g>
</g>
</g>
<defs>
<clipPath id="clip0_1403_104">
<rect width="1440" height="124" fill="white" transform="translate(-1072 -31)"/>
</clipPath>
</defs>
</svg>
