<svg width="21" height="20" viewBox="0 0 21 20" fill="none" xmlns="http://www.w3.org/2000/svg">
<path d="M5.60022 8.22865C3.57167 8.86578 2.10022 10.7609 2.10022 12.9998C2.10022 15.7612 4.3388 17.9998 7.10022 17.9998C8.49892 17.9998 9.76347 17.4254 10.6709 16.4998C11.5551 15.5979 12.1002 14.3625 12.1002 12.9998M15.6002 8.22865C17.629 8.86566 19.1006 10.7609 19.1006 12.9999C19.1006 15.7613 16.862 17.9999 14.1006 17.9999C12.9748 17.9999 11.9359 17.6278 11.1002 16.9999M15.6002 6.99965C15.6002 9.76107 13.3616 11.9996 10.6002 11.9996C7.8388 11.9996 5.60022 9.76107 5.60022 6.99965C5.60022 4.23822 7.8388 1.99965 10.6002 1.99965C13.3616 1.99965 15.6002 4.23822 15.6002 6.99965Z" stroke="#FF6633" stroke-width="2" stroke-linecap="round" stroke-linejoin="round"/>
</svg>
